<?xml version="1.0" encoding="UTF-8"?>
<svg width="248px" height="248px" viewBox="0 0 248 248" version="1.1" xmlns="http://www.w3.org/2000/svg" xmlns:xlink="http://www.w3.org/1999/xlink">
    <title>编组备份</title>
    <g id="页面-1" stroke="none" stroke-width="1" fill="none" fill-rule="evenodd">
        <g id="画板备份-42" transform="translate(-83.000000, -62.000000)">
            <g id="编组备份" transform="translate(83.000000, 62.000000)">
                <rect id="矩形" x="0" y="0" width="248" height="248"></rect>
                <path d="M100.479537,40 C115.368578,40 129.681414,44.4638841 141.896203,52.9144463 C151.244264,59.3842331 158.895433,67.8486157 164.341065,77.7262495 L165.522589,79.8693726 L167.881676,79.2184626 C176.145077,76.9384572 184.848809,76.3634763 193.478668,77.5342298 C207.294164,79.421361 220.308879,86.0163716 230.101404,96.0988715 C239.894786,106.188228 246.109881,119.392341 247.613078,133.294621 C249.231881,148.287329 245.75105,162.780323 237.548115,175.223431 C229.687511,187.137268 217.920203,196.144156 204.439942,200.56295 C196.086775,203.313949 182.126093,205.507522 167.881676,203.450632 C153.637259,201.393743 147.054413,198.061641 131.023623,189.199075 C125.624644,186.214269 116.250289,178.475206 111.652766,173.725292 C107.055242,168.975378 105.174876,166.29753 104.148041,164.66822 C103.121207,163.03891 103.426293,162.213259 104.148041,161.716481 C109.152938,158.272246 115.572432,155.705951 127.665212,155.54637 C136.774208,155.426164 146.026198,159.877099 151.303527,165.261352 L151.547482,165.515085 C158.821036,173.228958 170.640016,178.429456 182.325639,177.608649 C194.6435,176.743433 206.607277,169.50585 212.444915,160.209598 C219.30754,149.281089 221.417703,135.526573 215.797441,122.576394 C213.661926,117.655754 209.156706,111.801184 203.525415,107.411455 C196.059311,101.591445 187.155163,98.574803 177.195265,99.3854206 C174.381837,99.6144003 171.929481,100.125052 168.808261,101.021895 L166.531932,101.686746 C162.108266,102.968488 161.302325,103.069639 159.899571,102.698384 L159.816336,102.676006 C153.156678,100.859202 149.928141,98.4373713 147.054413,92.4767117 L146.906073,92.1652307 C141.722766,81.1489925 134.789916,72.9088894 123.783567,67.3774846 C113.129597,62.0231732 102.485064,61.0844385 93.1456835,62.8225259 C80.3976667,65.1949709 70.0170022,71.4894905 62.5946335,81.4166644 C56.1211192,90.0747768 53.1532345,100.444156 53.0544879,110.9521 L53.0519358,111.49573 C53.0519358,114.886533 52.3727662,118.864405 50.8955694,122.271673 C49.004681,126.633152 46.0252853,129.658298 41.6969424,131.035293 L41.3854774,131.130842 C28.8759401,134.828221 21.3152658,145.309047 21.3152658,156.851474 C21.3152658,170.473589 31.9034641,181.748258 46.5934374,183.735179 L47.2219828,183.814716 L47.405473,183.815258 C51.0612832,183.826075 55.7801209,188.029423 55.7801209,192.794477 C55.7801209,198.715344 51.4917522,203.7123 46.7770596,203.7123 C20.9837314,203.7123 0,182.692324 0,156.851474 C0,138.977487 9.99550149,122.850875 25.7938067,114.954259 L27.4857331,114.108567 L27.5082179,112.217191 C27.9829737,72.2817607 60.5706628,40 100.479537,40 Z" id="Fill-25" fill="#FFFFFF" fill-rule="nonzero"></path>
            </g>
        </g>
    </g>
</svg>